<svg data-v-423bf9ae="" xmlns="http://www.w3.org/2000/svg" viewBox="0 0 496.6896423005196 60" class="font"><!----><!----><defs data-v-423bf9ae=""><linearGradient data-v-423bf9ae="" gradientTransform="rotate(25)" id="513a2d2d-a8ea-4ea0-99ea-45f7cc97fed5" x1="0%" y1="0%" x2="100%" y2="0%"><stop data-v-423bf9ae="" offset="0%" style="stop-color: rgb(235, 76, 0); stop-opacity: 1;"></stop><stop data-v-423bf9ae="" offset="100%" style="stop-color: rgb(242, 169, 0); stop-opacity: 1;"></stop></linearGradient></defs><g data-v-423bf9ae="" id="1aa42fea-d57d-4093-836d-a69c0ef8b591" fill="url(#513a2d2d-a8ea-4ea0-99ea-45f7cc97fed5)" transform="matrix(4.597701082226675,0,0,4.597701082226675,-1.4252879376870453,-11.632183844910784)"><path d="M8.23 4.11L4.92 4.11L4.92 12.67L3.62 12.67L3.62 4.11L0.31 4.11L0.31 3.04L8.23 3.04L8.23 4.11ZM15.72 9.24L10.44 9.24L10.44 9.24Q10.44 10.51 10.96 11.20L10.96 11.20L10.96 11.20Q11.49 11.89 12.50 11.89L12.50 11.89L12.50 11.89Q13.30 11.89 13.78 11.57L13.78 11.57L13.78 11.57Q14.27 11.25 14.44 10.75L14.44 10.75L15.52 11.06L15.52 11.06Q14.85 12.81 12.50 12.81L12.50 12.81L12.50 12.81Q10.86 12.81 10.00 11.83L10.00 11.83L10.00 11.83Q9.15 10.86 9.15 8.93L9.15 8.93L9.15 8.93Q9.15 7.10 10.00 6.12L10.00 6.12L10.00 6.12Q10.86 5.14 12.46 5.14L12.46 5.14L12.46 5.14Q15.72 5.14 15.72 9.07L15.72 9.07L15.72 9.24ZM10.45 8.29L14.44 8.29L14.44 8.29Q14.34 7.12 13.85 6.59L13.85 6.59L13.85 6.59Q13.36 6.05 12.43 6.05L12.43 6.05L12.43 6.05Q11.54 6.05 11.02 6.65L11.02 6.65L11.02 6.65Q10.49 7.25 10.45 8.29L10.45 8.29ZM18.51 12.67L17.28 12.67L17.28 2.53L18.51 2.53L18.51 12.67ZM26.61 9.24L21.33 9.24L21.33 9.24Q21.33 10.51 21.86 11.20L21.86 11.20L21.86 11.20Q22.39 11.89 23.40 11.89L23.40 11.89L23.40 11.89Q24.20 11.89 24.68 11.57L24.68 11.57L24.68 11.57Q25.16 11.25 25.33 10.75L25.33 10.75L26.41 11.06L26.41 11.06Q25.75 12.81 23.40 12.81L23.40 12.81L23.40 12.81Q21.76 12.81 20.90 11.83L20.90 11.83L20.90 11.83Q20.04 10.86 20.04 8.93L20.04 8.93L20.04 8.93Q20.04 7.10 20.90 6.12L20.90 6.12L20.90 6.12Q21.76 5.14 23.35 5.14L23.35 5.14L23.35 5.14Q26.61 5.14 26.61 9.07L26.61 9.07L26.61 9.24ZM21.35 8.29L25.34 8.29L25.34 8.29Q25.24 7.12 24.75 6.59L24.75 6.59L24.75 6.59Q24.25 6.05 23.33 6.05L23.33 6.05L23.33 6.05Q22.44 6.05 21.91 6.65L21.91 6.65L21.91 6.65Q21.39 7.25 21.35 8.29L21.35 8.29ZM34.43 8.94L34.43 8.94L34.43 8.94Q34.43 12.81 31.71 12.81L31.71 12.81L31.71 12.81Q30.00 12.81 29.42 11.53L29.42 11.53L29.38 11.53L29.38 11.53Q29.41 11.58 29.41 12.69L29.41 12.69L29.41 15.58L28.18 15.58L28.18 6.79L28.18 6.79Q28.18 5.65 28.14 5.28L28.14 5.28L29.33 5.28L29.33 5.28Q29.33 5.30 29.35 5.47L29.35 5.47L29.35 5.47Q29.36 5.64 29.38 5.99L29.38 5.99L29.38 5.99Q29.39 6.34 29.39 6.47L29.39 6.47L29.42 6.47L29.42 6.47Q29.75 5.78 30.29 5.47L30.29 5.47L30.29 5.47Q30.83 5.15 31.71 5.15L31.71 5.15L31.71 5.15Q33.08 5.15 33.76 6.06L33.76 6.06L33.76 6.06Q34.43 6.98 34.43 8.94ZM33.14 8.97L33.14 8.97L33.14 8.97Q33.14 7.42 32.72 6.76L32.72 6.76L32.72 6.76Q32.31 6.10 31.40 6.10L31.40 6.10L31.40 6.10Q30.67 6.10 30.25 6.41L30.25 6.41L30.25 6.41Q29.84 6.71 29.62 7.37L29.62 7.37L29.62 7.37Q29.41 8.02 29.41 9.06L29.41 9.06L29.41 9.06Q29.41 10.52 29.87 11.21L29.87 11.21L29.87 11.21Q30.34 11.90 31.38 11.90L31.38 11.90L31.38 11.90Q32.30 11.90 32.72 11.23L32.72 11.23L32.72 11.23Q33.14 10.55 33.14 8.97ZM37.22 12.67L35.99 12.67L35.99 7L35.99 7Q35.99 6.22 35.95 5.28L35.95 5.28L37.11 5.28L37.11 5.28Q37.17 6.54 37.17 6.79L37.17 6.79L37.19 6.79L37.19 6.79Q37.49 5.84 37.87 5.49L37.87 5.49L37.87 5.49Q38.25 5.14 38.95 5.14L38.95 5.14L38.95 5.14Q39.20 5.14 39.45 5.21L39.45 5.21L39.45 6.34L39.45 6.34Q39.20 6.27 38.79 6.27L38.79 6.27L38.79 6.27Q38.03 6.27 37.63 6.93L37.63 6.93L37.63 6.93Q37.22 7.59 37.22 8.82L37.22 8.82L37.22 12.67ZM46.88 8.97L46.88 8.97L46.88 8.97Q46.88 10.91 46.03 11.86L46.03 11.86L46.03 11.86Q45.17 12.81 43.54 12.81L43.54 12.81L43.54 12.81Q41.92 12.81 41.10 11.82L41.10 11.82L41.10 11.82Q40.27 10.83 40.27 8.97L40.27 8.97L40.27 8.97Q40.27 5.14 43.59 5.14L43.59 5.14L43.59 5.14Q45.28 5.14 46.08 6.07L46.08 6.07L46.08 6.07Q46.88 7.01 46.88 8.97ZM45.59 8.97L45.59 8.97L45.59 8.97Q45.59 7.44 45.13 6.74L45.13 6.74L45.13 6.74Q44.68 6.05 43.61 6.05L43.61 6.05L43.61 6.05Q42.53 6.05 42.04 6.76L42.04 6.76L42.04 6.76Q41.56 7.46 41.56 8.97L41.56 8.97L41.56 8.97Q41.56 10.43 42.04 11.17L42.04 11.17L42.04 11.17Q42.51 11.90 43.53 11.90L43.53 11.90L43.53 11.90Q44.64 11.90 45.11 11.19L45.11 11.19L45.11 11.19Q45.59 10.48 45.59 8.97ZM53.94 12.67L52.72 12.67L52.72 7.98L52.72 7.98Q52.72 6.91 52.42 6.50L52.42 6.50L52.42 6.50Q52.13 6.09 51.37 6.09L51.37 6.09L51.37 6.09Q50.58 6.09 50.12 6.69L50.12 6.69L50.12 6.69Q49.66 7.29 49.66 8.39L49.66 8.39L49.66 12.67L48.44 12.67L48.44 6.86L48.44 6.86Q48.44 5.56 48.40 5.28L48.40 5.28L49.56 5.28L49.56 5.28Q49.57 5.31 49.57 5.46L49.57 5.46L49.57 5.46Q49.58 5.61 49.59 5.81L49.59 5.81L49.59 5.81Q49.60 6.00 49.62 6.54L49.62 6.54L49.64 6.54L49.64 6.54Q50.03 5.76 50.54 5.45L50.54 5.45L50.54 5.45Q51.06 5.14 51.80 5.14L51.80 5.14L51.80 5.14Q52.64 5.14 53.13 5.48L53.13 5.48L53.13 5.48Q53.61 5.81 53.81 6.54L53.81 6.54L53.83 6.54L53.83 6.54Q54.21 5.80 54.75 5.47L54.75 5.47L54.75 5.47Q55.30 5.14 56.07 5.14L56.07 5.14L56.07 5.14Q57.19 5.14 57.70 5.75L57.70 5.75L57.70 5.75Q58.21 6.36 58.21 7.75L58.21 7.75L58.21 12.67L56.99 12.67L56.99 7.98L56.99 7.98Q56.99 6.91 56.70 6.50L56.70 6.50L56.70 6.50Q56.40 6.09 55.64 6.09L55.64 6.09L55.64 6.09Q54.83 6.09 54.38 6.69L54.38 6.69L54.38 6.69Q53.94 7.29 53.94 8.39L53.94 8.39L53.94 12.67ZM66.33 8.94L66.33 8.94L66.33 8.94Q66.33 12.81 63.61 12.81L63.61 12.81L63.61 12.81Q61.90 12.81 61.31 11.53L61.31 11.53L61.28 11.53L61.28 11.53Q61.30 11.58 61.30 12.69L61.30 12.69L61.30 15.58L60.07 15.58L60.07 6.79L60.07 6.79Q60.07 5.65 60.03 5.28L60.03 5.28L61.22 5.28L61.22 5.28Q61.23 5.30 61.24 5.47L61.24 5.47L61.24 5.47Q61.26 5.64 61.27 5.99L61.27 5.99L61.27 5.99Q61.29 6.34 61.29 6.47L61.29 6.47L61.32 6.47L61.32 6.47Q61.65 5.78 62.19 5.47L62.19 5.47L62.19 5.47Q62.73 5.15 63.61 5.15L63.61 5.15L63.61 5.15Q64.98 5.15 65.65 6.06L65.65 6.06L65.65 6.06Q66.33 6.98 66.33 8.94ZM65.04 8.97L65.04 8.97L65.04 8.97Q65.04 7.42 64.62 6.76L64.62 6.76L64.62 6.76Q64.20 6.10 63.29 6.10L63.29 6.10L63.29 6.10Q62.56 6.10 62.15 6.41L62.15 6.41L62.15 6.41Q61.74 6.71 61.52 7.37L61.52 7.37L61.52 7.37Q61.30 8.02 61.30 9.06L61.30 9.06L61.30 9.06Q61.30 10.52 61.77 11.21L61.77 11.21L61.77 11.21Q62.23 11.90 63.28 11.90L63.28 11.90L63.28 11.90Q64.20 11.90 64.62 11.23L64.62 11.23L64.62 11.23Q65.04 10.55 65.04 8.97ZM70.70 11.71L70.70 12.62L70.70 12.62Q70.10 12.78 69.46 12.78L69.46 12.78L69.46 12.78Q67.98 12.78 67.98 11.11L67.98 11.11L67.98 6.17L67.13 6.17L67.13 5.28L68.03 5.28L68.39 3.62L69.21 3.62L69.21 5.28L70.58 5.28L70.58 6.17L69.21 6.17L69.21 10.84L69.21 10.84Q69.21 11.38 69.39 11.59L69.39 11.59L69.39 11.59Q69.56 11.81 69.99 11.81L69.99 11.81L69.99 11.81Q70.24 11.81 70.70 11.71L70.70 11.71ZM77.97 9.24L72.69 9.24L72.69 9.24Q72.69 10.51 73.22 11.20L73.22 11.20L73.22 11.20Q73.75 11.89 74.76 11.89L74.76 11.89L74.76 11.89Q75.56 11.89 76.04 11.57L76.04 11.57L76.04 11.57Q76.52 11.25 76.69 10.75L76.69 10.75L77.77 11.06L77.77 11.06Q77.11 12.81 74.76 12.81L74.76 12.81L74.76 12.81Q73.12 12.81 72.26 11.83L72.26 11.83L72.26 11.83Q71.40 10.86 71.40 8.93L71.40 8.93L71.40 8.93Q71.40 7.10 72.26 6.12L72.26 6.12L72.26 6.12Q73.12 5.14 74.71 5.14L74.71 5.14L74.71 5.14Q77.97 5.14 77.97 9.07L77.97 9.07L77.97 9.24ZM72.71 8.29L76.70 8.29L76.70 8.29Q76.60 7.12 76.10 6.59L76.10 6.59L76.10 6.59Q75.61 6.05 74.69 6.05L74.69 6.05L74.69 6.05Q73.79 6.05 73.27 6.65L73.27 6.65L73.27 6.65Q72.75 7.25 72.71 8.29L72.71 8.29ZM80.79 12.67L79.56 12.67L79.56 7L79.56 7Q79.56 6.22 79.52 5.28L79.52 5.28L80.68 5.28L80.68 5.28Q80.74 6.54 80.74 6.79L80.74 6.79L80.77 6.79L80.77 6.79Q81.06 5.84 81.44 5.49L81.44 5.49L81.44 5.49Q81.83 5.14 82.52 5.14L82.52 5.14L82.52 5.14Q82.77 5.14 83.02 5.21L83.02 5.21L83.02 6.34L83.02 6.34Q82.78 6.27 82.37 6.27L82.37 6.27L82.37 6.27Q81.60 6.27 81.20 6.93L81.20 6.93L81.20 6.93Q80.79 7.59 80.79 8.82L80.79 8.82L80.79 12.67ZM95.74 5.94L95.74 5.94L95.74 5.94Q95.74 7.31 94.85 8.11L94.85 8.11L94.85 8.11Q93.96 8.92 92.43 8.92L92.43 8.92L89.60 8.92L89.60 12.67L88.29 12.67L88.29 3.04L92.35 3.04L92.35 3.04Q93.97 3.04 94.86 3.80L94.86 3.80L94.86 3.80Q95.74 4.56 95.74 5.94ZM94.43 5.95L94.43 5.95L94.43 5.95Q94.43 4.09 92.19 4.09L92.19 4.09L89.60 4.09L89.60 7.89L92.24 7.89L92.24 7.89Q94.43 7.89 94.43 5.95ZM98.68 12.67L97.45 12.67L97.45 7L97.45 7Q97.45 6.22 97.41 5.28L97.41 5.28L98.57 5.28L98.57 5.28Q98.63 6.54 98.63 6.79L98.63 6.79L98.66 6.79L98.66 6.79Q98.95 5.84 99.33 5.49L99.33 5.49L99.33 5.49Q99.72 5.14 100.41 5.14L100.41 5.14L100.41 5.14Q100.66 5.14 100.91 5.21L100.91 5.21L100.91 6.34L100.91 6.34Q100.67 6.27 100.26 6.27L100.26 6.27L100.26 6.27Q99.49 6.27 99.09 6.93L99.09 6.93L99.09 6.93Q98.68 7.59 98.68 8.82L98.68 8.82L98.68 12.67ZM108.34 8.97L108.34 8.97L108.34 8.97Q108.34 10.91 107.49 11.86L107.49 11.86L107.49 11.86Q106.63 12.81 105.01 12.81L105.01 12.81L105.01 12.81Q103.39 12.81 102.56 11.82L102.56 11.82L102.56 11.82Q101.73 10.83 101.73 8.97L101.73 8.97L101.73 8.97Q101.73 5.14 105.05 5.14L105.05 5.14L105.05 5.14Q106.74 5.14 107.54 6.07L107.54 6.07L107.54 6.07Q108.34 7.01 108.34 8.97ZM107.05 8.97L107.05 8.97L107.05 8.97Q107.05 7.44 106.60 6.74L106.60 6.74L106.60 6.74Q106.14 6.05 105.07 6.05L105.07 6.05L105.07 6.05Q103.99 6.05 103.51 6.76L103.51 6.76L103.51 6.76Q103.02 7.46 103.02 8.97L103.02 8.97L103.02 8.97Q103.02 10.43 103.50 11.17L103.50 11.17L103.50 11.17Q103.97 11.90 104.99 11.90L104.99 11.90L104.99 11.90Q106.10 11.90 106.58 11.19L106.58 11.19L106.58 11.19Q107.05 10.48 107.05 8.97Z"></path></g><!----><!----></svg>