<svg data-v-423bf9ae="" xmlns="http://www.w3.org/2000/svg" viewBox="0 0 172.65306253524582 60" class="font"><!----><!----><!----><g data-v-423bf9ae="" id="b5caf4e5-81ee-4804-ab94-e7ce6145ec1e" fill="white" transform="matrix(6.1224488604322,0,0,6.1224488604322,0.0000010962686900484186,-4.285714427340487)"><path d="M4.13 0.70L4.13 0.70L4.44 0.70L4.44 10.50L4.13 10.50L3.15 10.50L2.90 10.50L2.90 5.60L1.54 5.60L1.54 10.50L0.98 10.50L0 10.50L0 0.70L0.98 0.70L1.54 0.70L1.54 4.06L2.90 4.06L2.90 0.70L3.15 0.70L4.13 0.70ZM6.89 10.50L6.89 10.50L5.35 10.50L5.35 0.70L6.89 0.70L6.89 10.50ZM11.30 0.70L11.30 0.70L12.28 0.70L12.28 0.70L12.28 10.50L12.28 10.50L10.74 10.50L10.74 10.50L9.34 6.12L9.34 10.50L9.34 10.50L7.80 10.50L7.80 0.70L8.36 0.70L8.36 0.70L9.34 0.70L9.34 0.70L9.34 0.73L10.74 5.35L10.74 0.70L11.30 0.70L11.30 0.70ZM17.12 1.16L17.12 1.16L17.12 1.16Q17.46 1.57 17.46 2.07L17.46 2.07L17.46 3.12L17.46 3.40L17.18 3.40L16.20 3.40L15.92 3.40L15.92 3.12L15.92 2.23L14.74 2.23L14.74 3.98L14.74 4.05L16.06 4.05L16.06 4.05Q16.65 4.05 17.05 4.45L17.05 4.45L17.05 4.45Q17.46 4.86 17.46 5.45L17.46 5.45L17.46 6.85L17.46 9.11L17.46 9.11Q17.46 9.62 17.12 10.02L17.12 10.02L17.12 10.02Q16.79 10.40 16.28 10.49L16.28 10.49L16.25 10.50L16.24 10.50L14.41 10.50L14.39 10.50L14.36 10.49L14.36 10.49Q13.86 10.40 13.52 10.02L13.52 10.02L13.52 10.02Q13.19 9.62 13.19 9.11L13.19 9.11L13.19 8.06L13.19 7.78L13.47 7.78L14.46 7.78L14.74 7.78L14.74 8.06L14.74 8.96L15.92 8.96L15.92 5.60L14.59 5.60L14.59 5.60Q14.00 5.60 13.59 5.19L13.59 5.19L13.59 5.19Q13.19 4.79 13.19 4.20L13.19 4.20L13.19 4.10L13.19 3.98L13.19 2.07L13.19 2.07Q13.19 1.57 13.52 1.16L13.52 1.16L13.52 1.16Q13.86 0.78 14.36 0.70L14.36 0.70L14.39 0.70L14.41 0.70L16.24 0.70L16.25 0.70L16.28 0.70L16.28 0.70Q16.79 0.78 17.12 1.16ZM19.29 0.70L21.88 0.70L21.88 0.70Q22.27 0.77 22.54 1.08L22.54 1.08L22.54 1.08Q22.81 1.40 22.81 1.81L22.81 1.81L22.81 2.86L22.81 3.28L22.81 3.30L22.81 8.36L22.81 9.41L22.81 9.41Q22.81 9.81 22.54 10.12L22.54 10.12L22.54 10.12Q22.27 10.43 21.88 10.50L21.88 10.50L19.29 10.50L19.29 10.50Q18.90 10.43 18.63 10.12L18.63 10.12L18.63 10.12Q18.37 9.81 18.37 9.41L18.37 9.41L18.37 1.81L18.37 1.81Q18.37 1.40 18.63 1.08L18.63 1.08L18.63 1.08Q18.90 0.77 19.29 0.70L19.29 0.70ZM21.27 3.30L21.27 3.28L21.27 2.86L21.27 2.24L19.91 2.24L19.91 8.97L21.27 8.97L21.27 8.36L21.27 3.30ZM27.22 0.70L27.22 0.70L28.20 0.70L28.20 0.70L28.20 10.50L28.20 10.50L26.66 10.50L26.66 10.50L25.26 6.12L25.26 10.50L25.26 10.50L23.72 10.50L23.72 0.70L24.28 0.70L24.28 0.70L25.26 0.70L25.26 0.70L25.26 0.73L26.66 5.35L26.66 0.70L27.22 0.70L27.22 0.70Z"></path></g><!----><!----></svg>